<?xml version="1.0" encoding="utf-8"?>
<!-- Generator: Adobe Illustrator 25.2.3, SVG Export Plug-In . SVG Version: 6.00 Build 0)  -->
<svg version="1.1" id="Lager_1" xmlns="http://www.w3.org/2000/svg" xmlns:xlink="http://www.w3.org/1999/xlink" x="0px" y="0px"
	 viewBox="0 0 155.9 31.6" style="enable-background:new 0 0 155.9 31.6;" xml:space="preserve">
<style type="text/css">
	.st0{fill:#10B981;}
	.st1{fill:#FFFFFF;}
	.st2{fill:#111827;}
</style>
<circle class="st0" cx="15.8" cy="15.8" r="15.8"/>
<path class="st1" d="M11.8,24.6c-0.3,0.2-0.7,0.1-0.9-0.2c-0.2-0.3-0.1-0.7,0.2-0.8c0,0,0,0,0,0l0,0l3.2-2.1l0.9,0.6L11.8,24.6z
	 M20.8,24c0.1,0.3-0.1,0.6-0.5,0.7l0,0c-0.2,0-0.3,0-0.5-0.1l-9-6.4c-0.1-0.1-0.3-0.1-0.4,0c-0.8,0.5-1.8,0.5-2.5-0.1
	c-0.5-0.3-0.8-0.8-1-1.4c-0.3-0.9,0.2-1.9,1.1-2.2l0,0c0.1,0,0.2-0.1,0.4-0.1c0.6-0.1,1.2,0.1,1.6,0.4c0.8,0.5,1.2,1.4,1,2.3
	c0,0.1,0,0.3,0.1,0.4l9.3,5.9C20.6,23.7,20.7,23.8,20.8,24z M23.7,18.2c-0.7,0.6-1.8,0.6-2.5,0.1c-0.1-0.1-0.3-0.1-0.4,0l-3.5,2.5
	l-0.9-0.5l4-2.6c0.1-0.1,0.2-0.2,0.1-0.3c-0.2-0.9,0.2-1.8,1-2.3c0.9-0.7,2.2-0.6,2.9,0.3C25,16.3,24.7,17.6,23.7,18.2z"/>
<path class="st1" d="M12.9,16.8l-0.1-0.6h6.1l-0.1,0.6H12.9z M11.6,7.5c0.6,0,1.2,0.3,1.6,0.7c0.1,0.1,0.3,0.1,0.4,0l0,0
	c0,0,0.1-0.1,0.1-0.1c0.6-1.1,1.9-1.5,3-1c0.4,0.2,0.8,0.6,1,1c0.1,0.2,0.3,0.2,0.4,0.1l0,0c0,0,0.1,0,0.1-0.1
	c0.9-0.9,2.3-0.9,3.2,0c0.8,0.8,0.9,2.2,0.1,3.1c-0.4,0.4-1,0.7-1.6,0.7c-0.2,0-0.3,0.1-0.3,0.2L19,15.5h-1.2l0.2-1.9l-0.6-0.1
	l-0.3,2h-1V12h-0.6v3.5h-1l-0.3-2l-0.6,0.1l0.3,1.9h-1.2L12,12.2c0-0.1-0.2-0.2-0.3-0.2c-1.2,0.1-2.3-0.9-2.4-2.1s0.9-2.3,2.1-2.4
	C11.5,7.5,11.6,7.5,11.6,7.5L11.6,7.5z"/>
<path class="st2" d="M51.8,13.9h-0.2c-0.4-0.2-0.9-0.3-1.4-0.3c-1.9,0-2.4,1.8-2.4,3.4v5.3H44V10.4h3.9V12l0,0
	c0.5-1.2,1.7-1.9,3-1.9c0.4,0,0.8,0.1,1.2,0.2L51.8,13.9z"/>
<path class="st2" d="M65,17.2h-8.5c0.1,1.5,1.5,2.6,3,2.5c0,0,0,0,0,0c1.3,0,2.5-0.4,3.6-1.1l1.5,2c-1.6,1.4-3.6,2.1-5.6,1.9
	c-3.7,0-6.4-2.3-6.4-6.2s2.9-6.2,6.4-6.2c3.1-0.2,5.8,2.1,6,5.2c0,0.2,0,0.4,0,0.6C65.1,16.5,65,17.2,65,17.2z M59,12.6
	c-1.3,0-2.4,1-2.4,2.4h4.9C61.5,13.7,60.4,12.6,59,12.6C59,12.6,59,12.6,59,12.6z"/>
<path class="st2" d="M72.6,22.5c-3.3,0.2-6.1-2.4-6.3-5.7c0-0.2,0-0.3,0-0.5c-0.1-3.3,2.6-6.1,5.9-6.2c0.1,0,0.3,0,0.4,0
	c1.6-0.1,3.1,0.3,4.4,1.3l-0.8,2.9c-0.9-0.7-2-1.1-3.1-1.1c-1.6-0.1-2.9,1.1-3,2.7c0,0.1,0,0.2,0,0.3c-0.1,1.6,1,2.9,2.6,3.1
	c0.1,0,0.3,0,0.4,0c1.1,0,2.2-0.4,3-1.2l0.9,2.9C77,21.2,75.7,22.5,72.6,22.5z"/>
<path class="st2" d="M80.8,9c-1.1-0.1-1.9-1.1-1.7-2.2s1.1-1.9,2.2-1.7c1,0.1,1.7,1,1.7,2c0,1.1-0.9,2-2,2C80.9,9,80.8,9,80.8,9z
	 M78.8,22.3V10.4h3.9v11.9H78.8z"/>
<path class="st2" d="M92.9,22.5c-1.5,0.1-2.9-0.6-3.8-1.8v5.9h-3.9V10.4H89v1.5l0,0c1-1.2,2.5-1.8,4-1.7c3.4,0,5.6,2.7,5.6,6.2
	S96.4,22.5,92.9,22.5z M91.8,13.2c-1.6,0-2.8,1.3-2.8,2.8c0,0.1,0,0.2,0,0.3c-0.2,1.5,1,2.9,2.5,3.1c1.5,0.2,2.9-1,3.1-2.5
	c0-0.2,0-0.4,0-0.6c0.2-1.5-1-2.9-2.5-3.1C92,13.2,91.9,13.2,91.8,13.2z"/>
<path class="st2" d="M112.1,17.2h-8.5c0.1,1.5,1.5,2.6,3,2.5c0,0,0,0,0,0c1.3,0,2.5-0.4,3.6-1.1l1.5,2c-1.6,1.4-3.6,2.1-5.7,1.9
	c-3.7,0-6.4-2.3-6.4-6.2s2.9-6.2,6.4-6.2c3.1-0.2,5.8,2.1,6,5.2c0,0.2,0,0.4,0,0.6C112.2,16.5,112.1,17.2,112.1,17.2z M106.1,12.6
	c-1.3,0-2.4,1-2.5,2.4c0,0,0,0,0,0h4.9C108.6,13.7,107.5,12.6,106.1,12.6C106.2,12.6,106.2,12.6,106.1,12.6z"/>
<path class="st2" d="M121.8,22.5c-1.5,0.1-3-0.6-3.9-1.8l0,0v1.6h-3.7V5.6h3.8v4c0,1.1,0,2.2,0,2.2l0,0c0.9-1.1,2.3-1.8,3.7-1.7
	c3.4,0,5.6,2.7,5.6,6.2S125.2,22.5,121.8,22.5z M120.7,13.2c-1.5,0-2.8,1.2-2.8,2.8c0,0.1,0,0.2,0,0.3c-0.1,1.5,1,2.9,2.6,3
	c1.5,0.1,2.9-1,3-2.6c0-0.2,0-0.3,0-0.5c0.2-1.5-0.9-2.9-2.5-3.1C120.9,13.2,120.8,13.2,120.7,13.2z"/>
<path class="st2" d="M135.3,22.5c-3.8,0-6.6-2.3-6.6-6.2s2.9-6.2,6.6-6.2s6.6,2.4,6.6,6.2S139,22.5,135.3,22.5z M135.3,13.2
	c-1.7,0-2.7,1.3-2.7,3.1s1,3.1,2.7,3.1s2.7-1.4,2.7-3.1S137,13.2,135.3,13.2z"/>
<path class="st2" d="M151.5,22.3l-2.7-4l-2.7,4h-4.4l4.8-6.2l-4.3-5.7h4.4l2.2,3.6l2.2-3.6h4.4l-4.3,5.7l4.8,6.2L151.5,22.3z"/>
</svg>
