<svg xmlns="http://www.w3.org/2000/svg" viewBox="0 0 155.87 31.6"><circle cx="15.8" cy="15.8" r="15.8" fill="#10b981"/><path d="M11.82,24.6a.63.63,0,0,1-.87-.16.61.61,0,0,1,.16-.85h0l3.22-2.06.91.64ZM20.75,24a.61.61,0,0,1-.47.72h0a.59.59,0,0,1-.48-.1l-9-6.36a.32.32,0,0,0-.37,0,2.21,2.21,0,0,1-2.53-.07,2.47,2.47,0,0,1-1-1.37,1.74,1.74,0,0,1,1.15-2.16h0a1.51,1.51,0,0,1,.36-.06,2.41,2.41,0,0,1,1.65.41,2.24,2.24,0,0,1,1,2.32.3.3,0,0,0,.13.35l9.26,5.92A.62.62,0,0,1,20.75,24Zm2.94-5.81a2.23,2.23,0,0,1-2.54.07.32.32,0,0,0-.37,0l-3.53,2.51-.85-.55,4-2.56a.31.31,0,0,0,.14-.34,2.21,2.21,0,0,1,1-2.32,2.1,2.1,0,0,1,2.93.34,2.12,2.12,0,0,1-.78,2.85Z" fill="#fff"/><path d="M12.87,16.79l-.13-.64h6.13l-.13.64ZM11.65,7.52a2.23,2.23,0,0,1,1.62.71.32.32,0,0,0,.45,0h0a.22.22,0,0,0,.07-.09,2.24,2.24,0,0,1,3-1,2.28,2.28,0,0,1,1,1,.32.32,0,0,0,.42.15h0a.22.22,0,0,0,.09-.07,2.24,2.24,0,0,1,3.26,3.07A2.26,2.26,0,0,1,20,12a.32.32,0,0,0-.32.25L19,15.5H17.77L18,13.63l-.63-.1-.27,2h-1V12h-.64V15.5h-1l-.28-2-.63.1.27,1.87H12.61L12,12.24a.32.32,0,0,0-.31-.25,2.24,2.24,0,1,1,0-4.47Z" fill="#fff"/><path d="M51.83,13.9h-.17a3.11,3.11,0,0,0-1.4-.29c-1.91,0-2.39,1.79-2.39,3.36v5.29H44V10.35h3.87l0,1.69h0a3.17,3.17,0,0,1,3-1.91,2.75,2.75,0,0,1,1.21.22Z" fill="#fff"/><path d="M65,17.24H56.55a2.74,2.74,0,0,0,3,2.49,6.71,6.71,0,0,0,3.58-1.14l1.52,2A7.86,7.86,0,0,1,59,22.53c-3.68,0-6.36-2.27-6.36-6.21s2.9-6.19,6.43-6.19a5.61,5.61,0,0,1,6,5.83C65.08,16.54,65,17.24,65,17.24Zm-6-4.6A2.43,2.43,0,0,0,56.57,15h4.91A2.41,2.41,0,0,0,59,12.64Z" fill="#fff"/><path d="M72.55,22.53a6,6,0,0,1-6.28-6.19,6.06,6.06,0,0,1,6.33-6.21A6.79,6.79,0,0,1,77,11.39l-.85,2.92a4.94,4.94,0,0,0-3.07-1.06,2.85,2.85,0,0,0-3,3,2.84,2.84,0,0,0,3,3.07,4.72,4.72,0,0,0,3-1.16l.92,2.92C77,21.2,75.72,22.53,72.55,22.53Z" fill="#fff"/><path d="M80.75,9A2,2,0,1,1,83,7,2,2,0,0,1,80.75,9ZM78.82,22.26V10.35h3.86V22.26Z" fill="#fff"/><path d="M92.92,22.53a4.23,4.23,0,0,1-3.77-1.77v5.88H85.28V10.35H89l0,1.52h0a4.91,4.91,0,0,1,4-1.74c3.43,0,5.61,2.68,5.61,6.19S96.37,22.53,92.92,22.53ZM91.8,13.18A2.81,2.81,0,0,0,89,16.27a2.81,2.81,0,1,0,5.59,0A2.81,2.81,0,0,0,91.8,13.18Z" fill="#fff"/><path d="M112.14,17.24h-8.49a2.75,2.75,0,0,0,3,2.49,6.74,6.74,0,0,0,3.58-1.14l1.52,2a7.92,7.92,0,0,1-5.66,1.93c-3.67,0-6.36-2.27-6.36-6.21s2.91-6.19,6.43-6.19a5.61,5.61,0,0,1,6,5.83C112.18,16.54,112.14,17.24,112.14,17.24Zm-6-4.6a2.42,2.42,0,0,0-2.46,2.4h4.9A2.4,2.4,0,0,0,106.14,12.64Z" fill="#fff"/><path d="M121.76,22.53a4.62,4.62,0,0,1-3.94-1.84h0l0,1.57h-3.67V5.59H118v4c0,1.09,0,2.2,0,2.2H118a4.43,4.43,0,0,1,3.74-1.67c3.44,0,5.61,2.68,5.61,6.19S125.22,22.53,121.76,22.53Zm-1.09-9.35a2.8,2.8,0,0,0-2.8,3.09,2.8,2.8,0,1,0,5.58,0A2.79,2.79,0,0,0,120.67,13.18Z" fill="#fff"/><path d="M135.27,22.53c-3.78,0-6.63-2.34-6.63-6.19s2.85-6.21,6.63-6.21,6.59,2.37,6.59,6.21S139,22.53,135.27,22.53Zm0-9.35c-1.72,0-2.71,1.32-2.71,3.09s1,3.09,2.71,3.09S138,18,138,16.27,137,13.18,135.27,13.18Z" fill="#fff"/><path d="M151.47,22.26l-2.68-4-2.71,4h-4.4l4.79-6.21-4.28-5.7h4.38l2.22,3.58,2.2-3.58h4.37l-4.27,5.7,4.78,6.21Z" fill="#fff"/></svg>