<?xml version="1.0" standalone="no"?>
<!DOCTYPE svg PUBLIC "-//W3C//DTD SVG 20010904//EN"
 "http://www.w3.org/TR/2001/REC-SVG-20010904/DTD/svg10.dtd">
<svg version="1.0" xmlns="http://www.w3.org/2000/svg"
 width="700.000000pt" height="700.000000pt" viewBox="0 0 700.000000 700.000000"
 preserveAspectRatio="xMidYMid meet">
<metadata>
Created by potrace 1.14, written by Peter Selinger 2001-2017
</metadata>
<g transform="translate(0.000000,700.000000) scale(0.100000,-0.100000)"
fill="#000000" stroke="none">
<path d="M3310 6536 c-142 -38 -255 -103 -352 -202 -63 -65 -101 -116 -137
-186 -51 -97 -135 -104 -216 -18 -68 72 -191 145 -298 179 -266 82 -564 10
-758 -181 -77 -77 -87 -88 -131 -165 -180 -306 -122 -699 137 -941 134 -126
285 -191 480 -208 44 -3 88 -11 98 -16 41 -21 47 -44 141 -518 4 -20 37 -183
92 -455 13 -68 24 -124 28 -148 12 -72 -5 -67 226 -67 206 0 209 0 205 21 -2
11 -9 53 -14 92 -6 40 -12 88 -15 107 -3 19 -10 71 -16 115 -6 44 -13 91 -16
105 -13 78 -25 192 -21 196 6 6 40 13 107 20 97 11 102 11 106 -11 18 -130 36
-257 40 -285 2 -19 6 -44 9 -55 2 -11 7 -45 10 -75 3 -30 8 -62 10 -70 2 -8 7
-40 10 -70 11 -98 -6 -90 186 -90 l169 0 0 600 0 600 43 1 c23 0 72 1 110 2
l67 2 0 -603 0 -602 172 2 c162 3 171 4 174 23 4 29 25 176 29 205 7 47 16
107 20 145 3 21 7 50 10 64 14 83 28 186 29 214 0 19 8 19 136 0 25 -4 52 -7
60 -7 17 -1 20 -44 8 -121 -4 -27 -10 -70 -13 -95 -3 -25 -8 -54 -10 -65 -2
-11 -7 -43 -10 -71 -3 -28 -8 -61 -10 -74 -3 -13 -7 -42 -10 -65 -13 -95 -17
-121 -21 -137 -5 -17 9 -18 205 -18 210 0 211 0 216 23 7 32 53 257 59 287 2
14 7 36 10 50 3 14 8 36 10 50 3 14 19 95 36 180 17 85 34 166 36 180 3 14 13
68 24 120 11 52 21 106 24 120 20 120 33 151 69 174 12 8 60 17 106 21 90 7
227 43 294 76 64 32 157 102 208 156 144 150 220 348 214 555 -14 423 -359
749 -782 740 -73 -2 -212 -26 -242 -42 -9 -5 -34 -17 -56 -26 -63 -28 -143
-81 -199 -133 -77 -72 -118 -87 -169 -60 -23 13 -56 49 -57 63 0 13 -86 138
-122 176 -98 106 -236 185 -389 223 -90 23 -259 20 -359 -7z"/>
<path d="M935 3925 c-91 -16 -121 -26 -197 -67 -145 -76 -270 -253 -295 -416
-40 -259 99 -554 341 -727 162 -115 306 -163 483 -160 137 2 239 31 378 106
76 41 106 43 155 12 14 -9 219 -154 455 -322 237 -168 484 -343 550 -390 66
-46 138 -97 160 -114 22 -16 157 -112 300 -213 143 -101 269 -190 280 -198 55
-40 346 -246 390 -276 28 -19 55 -38 60 -43 6 -4 42 -30 80 -57 39 -27 93 -65
120 -85 28 -20 88 -64 135 -96 47 -33 94 -67 105 -75 106 -78 436 -309 459
-321 15 -8 52 -16 80 -18 159 -10 270 160 197 302 -30 58 -16 48 -368 273
-216 138 -1328 850 -1432 917 -53 34 -136 87 -186 119 -49 31 -119 76 -155 99
-328 211 -560 360 -585 375 -30 18 -276 176 -432 277 -125 81 -142 105 -125
181 16 70 6 259 -17 340 -82 283 -324 500 -636 571 -74 17 -220 20 -300 6z"/>
<path d="M5848 3935 c-1 -1 -21 -5 -43 -9 -56 -8 -73 -12 -130 -31 -298 -101
-510 -337 -564 -625 -10 -58 -8 -260 3 -279 4 -6 2 -28 -4 -50 -12 -45 12 -28
-550 -388 -168 -107 -334 -214 -370 -237 -36 -23 -99 -64 -140 -90 -178 -113
-246 -157 -260 -166 -8 -6 -30 -20 -49 -31 -41 -25 -47 -19 122 -128 l128 -82
42 28 c66 44 251 177 257 184 3 3 10 8 16 10 5 2 68 46 140 97 411 297 753
536 783 549 41 18 63 13 139 -32 188 -110 427 -130 638 -54 193 70 386 242
476 424 66 132 94 294 73 415 -40 234 -205 412 -441 475 -50 14 -256 29 -266
20z"/>
<path d="M2455 3367 c4 -13 14 -61 23 -108 l18 -84 1002 -2 c762 -1 1004 1
1007 10 3 7 13 56 23 110 l19 97 -1049 0 -1048 0 5 -23z"/>
<path d="M2950 1524 c-19 -14 -135 -89 -257 -167 -123 -78 -254 -162 -293
-187 -38 -25 -171 -110 -296 -190 -125 -79 -239 -160 -255 -179 -32 -39 -49
-104 -42 -159 13 -96 92 -168 196 -176 73 -6 114 17 457 264 51 37 566 402
807 573 24 17 42 31 40 33 -31 27 -303 214 -311 214 -6 -1 -27 -12 -46 -26z"/>
</g>
</svg>
