<?xml version="1.0" encoding="utf-8"?>
<!-- Generator: Adobe Illustrator 25.2.3, SVG Export Plug-In . SVG Version: 6.00 Build 0)  -->
<svg version="1.1" id="Lager_1" xmlns="http://www.w3.org/2000/svg" xmlns:xlink="http://www.w3.org/1999/xlink" x="0px" y="0px"
	 viewBox="0 0 512 512" style="enable-background:new 0 0 512 512;" xml:space="preserve">
<style type="text/css">
	.st0{fill:#10B981;}
	.st1{fill:#FFFFFF;}
</style>
<circle class="st0" cx="256" cy="256" r="256"/>
<g>
	<path class="st1" d="M191.5,398.6c-4.6,3.1-10.9,1.9-14.1-2.6c-3.1-4.5-1.9-10.7,2.6-13.8c0,0,0,0,0.1-0.1c0.1-0.1,0.2-0.1,0.3-0.2
		l52.1-33.4l14.7,10.4L191.5,398.6z M336.3,388.5c1.1,5.4-2.3,10.6-7.7,11.8c0,0-0.1,0-0.1,0c-2.7,0.6-5.5,0-7.8-1.6L175.4,295.5
		c-1.8-1.3-4.2-1.3-6,0.1c-12.6,8.2-28.9,7.7-41-1.2c-7.9-5.2-13.7-13.1-16.2-22.2c-4.5-14.8,3.8-30.4,18.6-34.9c0,0,0,0,0,0
		c1.9-0.6,3.8-1,5.8-1.1c9.4-1,18.9,1.4,26.7,6.7c12.8,7.9,19.4,22.8,16.5,37.6c-0.5,2.2,0.3,4.4,2.2,5.6l150,96
		C334.1,383.5,335.7,385.8,336.3,388.5z M383.8,294.4c-12.1,8.9-28.4,9.4-41,1.2c-1.8-1.3-4.2-1.3-6-0.1l-57.3,40.7l-13.7-8.8
		l64.6-41.5c1.9-1.2,2.8-3.5,2.2-5.6c-2.8-14.7,3.7-29.7,16.5-37.6c16.6-11.2,37.9-8.7,47.4,5.5C406,262.5,400.3,283.2,383.8,294.4
		L383.8,294.4z"/>
	<path class="st1" d="M208.6,272.1l-2.1-10.4h99.3l-2.1,10.4H208.6z M188.7,121.9c10,0,19.5,4.1,26.4,11.4c1.9,2.1,5.2,2.2,7.3,0.2
		c0,0,0,0,0.1-0.1c0.5-0.4,0.8-0.9,1.1-1.5c8.7-18,30.3-25.5,48.3-16.8c7.4,3.6,13.3,9.5,16.8,16.8c1.3,2.6,4.4,3.6,6.9,2.4
		c0,0,0,0,0,0c0.6-0.3,1.1-0.6,1.5-1.1c13.7-14.6,36.7-15.2,51.2-1.5c14.6,13.7,15.2,36.7,1.5,51.2c-6.9,7.3-16.4,11.4-26.4,11.4
		c-2.5,0-4.6,1.7-5.1,4.1l-10.6,52.8h-19.8l4.3-30.4l-10.2-1.5l-4.5,31.8h-16.3v-57h-10.3v57h-16.3l-4.5-31.8l-10.2,1.5l4.3,30.4
		h-19.8l-10.6-52.8c-0.5-2.4-2.6-4.1-5.1-4.1c-20,0-36.3-16.2-36.3-36.2C152.4,138.1,168.7,121.9,188.7,121.9L188.7,121.9z"/>
</g>
</svg>
